<mxfile host="app.diagrams.net" agent="Mozilla/5.0 (Windows NT 10.0; Win64; x64) AppleWebKit/537.36 (KHTML, like Gecko) Chrome/130.0.0.0 Safari/537.36" version="24.8.1">
  <diagram name="第 1 页" id="62UwvM3zGKsdqC4A1JGO">
    <mxGraphModel dx="576" dy="300" grid="1" gridSize="10" guides="1" tooltips="1" connect="1" arrows="1" fold="1" page="1" pageScale="1" pageWidth="827" pageHeight="1169" math="0" shadow="0">
      <root>
        <mxCell id="0" />
        <mxCell id="1" parent="0" />
        <mxCell id="GDkBWHPbkfynayT1y_cl-14" style="edgeStyle=orthogonalEdgeStyle;rounded=0;orthogonalLoop=1;jettySize=auto;html=1;" parent="1" source="GDkBWHPbkfynayT1y_cl-1" target="GDkBWHPbkfynayT1y_cl-8" edge="1">
          <mxGeometry relative="1" as="geometry" />
        </mxCell>
        <mxCell id="GDkBWHPbkfynayT1y_cl-16" value="&lt;font style=&quot;font-size: 15px;&quot;&gt;Problem&lt;/font&gt;&lt;div&gt;&lt;font style=&quot;font-size: 15px;&quot;&gt;Feedback&lt;/font&gt;&lt;/div&gt;" style="edgeLabel;html=1;align=center;verticalAlign=middle;resizable=0;points=[];" parent="GDkBWHPbkfynayT1y_cl-14" vertex="1" connectable="0">
          <mxGeometry x="0.0061" y="4" relative="1" as="geometry">
            <mxPoint x="36" as="offset" />
          </mxGeometry>
        </mxCell>
        <mxCell id="GDkBWHPbkfynayT1y_cl-1" value="&lt;b&gt;&lt;font style=&quot;font-size: 27px;&quot;&gt;Unity Game&lt;/font&gt;&lt;/b&gt;" style="rounded=1;whiteSpace=wrap;html=1;absoluteArcSize=1;arcSize=14;strokeWidth=2;" parent="1" vertex="1">
          <mxGeometry x="476" y="475" width="190" height="150" as="geometry" />
        </mxCell>
        <mxCell id="GDkBWHPbkfynayT1y_cl-21" style="edgeStyle=orthogonalEdgeStyle;rounded=0;orthogonalLoop=1;jettySize=auto;html=1;exitX=1;exitY=0.5;exitDx=0;exitDy=0;entryX=0;entryY=0.5;entryDx=0;entryDy=0;" parent="1" source="GDkBWHPbkfynayT1y_cl-2" target="GDkBWHPbkfynayT1y_cl-1" edge="1">
          <mxGeometry relative="1" as="geometry" />
        </mxCell>
        <mxCell id="GDkBWHPbkfynayT1y_cl-22" value="&lt;font style=&quot;font-size: 15px;&quot;&gt;Data Synchronization&lt;/font&gt;" style="edgeLabel;html=1;align=center;verticalAlign=middle;resizable=0;points=[];" parent="GDkBWHPbkfynayT1y_cl-21" vertex="1" connectable="0">
          <mxGeometry x="-0.0051" y="2" relative="1" as="geometry">
            <mxPoint y="-18" as="offset" />
          </mxGeometry>
        </mxCell>
        <mxCell id="GDkBWHPbkfynayT1y_cl-2" value="&lt;b&gt;&lt;font style=&quot;font-size: 22px;&quot;&gt;Github&lt;/font&gt;&lt;/b&gt;" style="rounded=0;whiteSpace=wrap;html=1;" parent="1" vertex="1">
          <mxGeometry x="161" y="520" width="120" height="60" as="geometry" />
        </mxCell>
        <mxCell id="GDkBWHPbkfynayT1y_cl-3" value="&lt;b&gt;&lt;font style=&quot;font-size: 22px;&quot;&gt;Player&lt;/font&gt;&lt;/b&gt;" style="rounded=0;whiteSpace=wrap;html=1;" parent="1" vertex="1">
          <mxGeometry x="511" y="230" width="120" height="60" as="geometry" />
        </mxCell>
        <mxCell id="GDkBWHPbkfynayT1y_cl-25" style="edgeStyle=orthogonalEdgeStyle;rounded=0;orthogonalLoop=1;jettySize=auto;html=1;exitX=0;exitY=0.5;exitDx=0;exitDy=0;entryX=0.25;entryY=1;entryDx=0;entryDy=0;" parent="1" source="GDkBWHPbkfynayT1y_cl-4" target="GDkBWHPbkfynayT1y_cl-1" edge="1">
          <mxGeometry relative="1" as="geometry" />
        </mxCell>
        <mxCell id="GDkBWHPbkfynayT1y_cl-26" value="&lt;font style=&quot;font-size: 15px;&quot;&gt;Test&lt;/font&gt;" style="edgeLabel;html=1;align=center;verticalAlign=middle;resizable=0;points=[];" parent="GDkBWHPbkfynayT1y_cl-25" vertex="1" connectable="0">
          <mxGeometry x="-0.0182" y="2" relative="1" as="geometry">
            <mxPoint x="1" y="15" as="offset" />
          </mxGeometry>
        </mxCell>
        <mxCell id="GDkBWHPbkfynayT1y_cl-4" value="&lt;font style=&quot;font-size: 22px;&quot;&gt;Tester&lt;/font&gt;" style="rounded=0;whiteSpace=wrap;html=1;direction=south;" parent="1" vertex="1">
          <mxGeometry x="341" y="790" width="90" height="90" as="geometry" />
        </mxCell>
        <mxCell id="GDkBWHPbkfynayT1y_cl-7" value="" style="line;strokeWidth=1;rotatable=0;dashed=0;labelPosition=right;align=left;verticalAlign=middle;spacingTop=0;spacingLeft=6;points=[];portConstraint=eastwest;" parent="1" vertex="1">
          <mxGeometry x="476" y="500" width="190" height="10" as="geometry" />
        </mxCell>
        <mxCell id="GDkBWHPbkfynayT1y_cl-8" value="&lt;font style=&quot;font-size: 20px;&quot;&gt;Debugger&lt;/font&gt;" style="rounded=0;whiteSpace=wrap;html=1;direction=south;" parent="1" vertex="1">
          <mxGeometry x="526" y="790" width="90" height="90" as="geometry" />
        </mxCell>
        <mxCell id="GDkBWHPbkfynayT1y_cl-9" value="&lt;font style=&quot;font-size: 20px;&quot;&gt;Developer&lt;/font&gt;" style="rounded=0;whiteSpace=wrap;html=1;direction=south;" parent="1" vertex="1">
          <mxGeometry x="161" y="780" width="89" height="100" as="geometry" />
        </mxCell>
        <mxCell id="GDkBWHPbkfynayT1y_cl-23" style="edgeStyle=orthogonalEdgeStyle;rounded=0;orthogonalLoop=1;jettySize=auto;html=1;exitX=0;exitY=0.5;exitDx=0;exitDy=0;entryX=0.375;entryY=0.983;entryDx=0;entryDy=0;entryPerimeter=0;" parent="1" source="GDkBWHPbkfynayT1y_cl-9" target="GDkBWHPbkfynayT1y_cl-2" edge="1">
          <mxGeometry relative="1" as="geometry" />
        </mxCell>
        <mxCell id="GDkBWHPbkfynayT1y_cl-24" value="&lt;font style=&quot;font-size: 15px;&quot;&gt;Write&lt;/font&gt;&lt;div&gt;&lt;font style=&quot;font-size: 15px;&quot;&gt;Code&lt;/font&gt;&lt;/div&gt;" style="edgeLabel;html=1;align=center;verticalAlign=middle;resizable=0;points=[];" parent="GDkBWHPbkfynayT1y_cl-23" vertex="1" connectable="0">
          <mxGeometry x="-0.0617" y="1" relative="1" as="geometry">
            <mxPoint x="26" as="offset" />
          </mxGeometry>
        </mxCell>
        <mxCell id="lzGh1YYfQW0G2buhzEv1-1" style="edgeStyle=orthogonalEdgeStyle;rounded=0;orthogonalLoop=1;jettySize=auto;html=1;exitX=0.25;exitY=1;exitDx=0;exitDy=0;entryX=0.347;entryY=0.013;entryDx=0;entryDy=0;entryPerimeter=0;labelPosition=right;verticalLabelPosition=middle;align=left;verticalAlign=middle;" edge="1" parent="1" source="GDkBWHPbkfynayT1y_cl-3" target="GDkBWHPbkfynayT1y_cl-1">
          <mxGeometry relative="1" as="geometry" />
        </mxCell>
        <mxCell id="lzGh1YYfQW0G2buhzEv1-2" value="Play" style="edgeLabel;html=1;align=center;verticalAlign=middle;resizable=0;points=[];" vertex="1" connectable="0" parent="lzGh1YYfQW0G2buhzEv1-1">
          <mxGeometry x="-0.095" relative="1" as="geometry">
            <mxPoint x="19" y="5" as="offset" />
          </mxGeometry>
        </mxCell>
        <mxCell id="lzGh1YYfQW0G2buhzEv1-3" style="edgeStyle=orthogonalEdgeStyle;rounded=0;orthogonalLoop=1;jettySize=auto;html=1;exitX=0.75;exitY=0;exitDx=0;exitDy=0;entryX=0.9;entryY=1.037;entryDx=0;entryDy=0;entryPerimeter=0;" edge="1" parent="1" source="GDkBWHPbkfynayT1y_cl-1" target="GDkBWHPbkfynayT1y_cl-3">
          <mxGeometry relative="1" as="geometry" />
        </mxCell>
        <mxCell id="lzGh1YYfQW0G2buhzEv1-4" value="Experience&amp;nbsp;&lt;div&gt;Feedback&lt;/div&gt;" style="edgeLabel;html=1;align=center;verticalAlign=middle;resizable=0;points=[];" vertex="1" connectable="0" parent="lzGh1YYfQW0G2buhzEv1-3">
          <mxGeometry x="0.027" y="-2" relative="1" as="geometry">
            <mxPoint x="29" as="offset" />
          </mxGeometry>
        </mxCell>
      </root>
    </mxGraphModel>
  </diagram>
</mxfile>
